<?xml version="1.0" encoding="utf-8"?>
<!-- Generator: Adobe Illustrator 27.5.0, SVG Export Plug-In . SVG Version: 6.00 Build 0)  -->
<svg version="1.1" xmlns="http://www.w3.org/2000/svg" xmlns:xlink="http://www.w3.org/1999/xlink" x="0px" y="0px"
	 viewBox="0 0 849 1200" style="enable-background:new 0 0 849 1200;" xml:space="preserve">
<g id="Background">
	
		<rect x="-175.5" y="175.5" transform="matrix(6.123234e-17 -1 1 6.123234e-17 -175.5 1024.5)" style="fill:#FAFDFF;" width="1200" height="849"/>
</g>
<g id="Graphic_elements">
	<g>
		<defs>
			<rect id="SVGID_1_" width="849" height="1200"/>
		</defs>
		<clipPath id="SVGID_00000017494257002969558560000016401010504103835814_">
			<use xlink:href="#SVGID_1_"  style="overflow:visible;"/>
		</clipPath>
		<g style="clip-path:url(#SVGID_00000017494257002969558560000016401010504103835814_);">
			<path style="fill:#86A5BF;" d="M851.802,92.288c-50.727,0.875-100.703,3.16-149.757,6.788
				c-44.898,7.422-89.03,16.127-132.276,26.024c89.62-5.848,184.27-2.819,282.034,9.847V92.288z"/>
			<path style="fill:#B8D0E6;" d="M-2.802,270.124v84.619C154.74,255.776,350.887,175.189,569.768,125.1
				c43.246-9.896,87.378-18.602,132.276-26.024C429.012,119.27,184.474,180.88-2.802,270.124z"/>
			<path style="fill:#14476D;" d="M-2.802-4v274.124C184.474,180.88,429.012,119.27,702.044,99.077
				c49.055-3.628,99.031-5.913,149.757-6.788V-4H-2.802z"/>
		</g>
		<g style="clip-path:url(#SVGID_00000017494257002969558560000016401010504103835814_);">
			<path style="fill:#86A5BF;" d="M-2.653,1093.884v45.684c109.75-0.922,215.616-7.066,315.453-17.72
				C211.769,1121.678,105.944,1112.62-2.653,1093.884z"/>
			<path style="fill:#14476D;" d="M312.8,1121.848c-99.837,10.654-205.704,16.797-315.453,17.72V1202h854.306V997.804
				C714.072,1055.234,527.362,1098.952,312.8,1121.848z"/>
		</g>
	</g>
</g>
</svg>
